<svg width="84" height="85" viewBox="0 0 84 85" fill="none" xmlns="http://www.w3.org/2000/svg">
<path d="M0.749998 42.1074C0.749998 48.1694 0.750069 52.6827 0.970701 56.2861C1.17722 59.6588 1.57473 62.1919 2.32715 64.4102L2.48242 64.8496C5.2522 72.3888 11.0954 78.3802 18.5332 81.3467L19.2578 81.625C21.5816 82.4787 24.2239 82.9164 27.8213 83.1367C31.4247 83.3574 35.938 83.3574 42 83.3574C48.062 83.3574 52.5753 83.3574 56.1787 83.1367C59.5514 82.9302 62.0845 82.5327 64.3027 81.7803L64.7422 81.625C72.2813 78.8552 78.2727 73.012 81.2393 65.5742L81.5176 64.8496C82.3713 62.5258 82.809 59.8835 83.0293 56.2861C83.2499 52.6827 83.25 48.1694 83.25 42.1074C83.25 36.0454 83.2499 31.5322 83.0293 27.9287C82.8228 24.556 82.4253 22.0229 81.6729 19.8047L81.5176 19.3652C78.7478 11.8261 72.9046 5.8347 65.4668 2.86817L64.7422 2.58985C62.4184 1.73612 59.7761 1.29841 56.1787 1.07813C52.5753 0.857496 48.062 0.857424 42 0.857424C35.938 0.857423 31.4247 0.857495 27.8213 1.07813C24.4486 1.28465 21.9155 1.68216 19.6973 2.43457L19.2578 2.58984C11.7187 5.35962 5.72727 11.2029 2.76074 18.6406L2.48242 19.3652C1.62869 21.689 1.19099 24.3313 0.970702 27.9287C0.75007 31.5321 0.749998 36.0454 0.749998 42.1074Z" stroke="url(#paint0_linear_1_289)" stroke-width="1.5"/>
<defs>
<linearGradient id="paint0_linear_1_289" x1="54.9419" y1="84.1074" x2="58.0642" y2="20.2358" gradientUnits="userSpaceOnUse">
<stop stop-color="#237249"/>
<stop offset="1" stop-color="#35C66B"/>
</linearGradient>
</defs>
</svg>
